<?xml version="1.0" standalone="no"?>
<!DOCTYPE svg PUBLIC "-//W3C//DTD SVG 20010904//EN"
 "http://www.w3.org/TR/2001/REC-SVG-20010904/DTD/svg10.dtd">
<svg version="1.0" xmlns="http://www.w3.org/2000/svg"
 width="740.000000pt" height="740.000000pt" viewBox="0 0 740.000000 740.000000"
 preserveAspectRatio="xMidYMid meet">

<g transform="translate(0.000000,740.000000) scale(0.100000,-0.100000)"
fill="#000000" stroke="none">
<path d="M2345 5020 c-4 -6 -10 -8 -15 -5 -5 3 -12 0 -16 -6 -5 -8 -2 -10 7
-5 8 4 5 0 -6 -9 -11 -9 -21 -20 -21 -25 -1 -6 -2 -15 -3 -21 0 -5 -6 -7 -13
-3 -8 5 -9 2 -5 -10 4 -10 3 -15 -3 -11 -11 7 -32 -29 -22 -40 4 -5 2 -6 -3
-2 -10 5 -57 -69 -210 -327 -38 -65 -42 -77 -23 -64 40 26 133 56 230 75 79
15 144 18 443 17 193 -1 373 -4 400 -8 103 -12 1297 -19 1489 -7 226 13 258
24 358 122 73 73 171 206 161 222 -3 6 -1 7 5 3 7 -4 14 4 18 21 4 15 14 33
23 40 10 8 12 12 4 13 -7 0 -10 7 -6 18 5 16 5 16 -8 0 -14 -16 -102 -31 -93
-16 3 5 -8 8 -25 8 -16 0 -32 -6 -34 -12 -4 -10 -7 -10 -14 -1 -6 9 -311 12
-1282 12 -700 0 -1276 2 -1279 5 -3 3 -11 1 -18 -5 -8 -6 -21 -8 -30 -5 -13 5
-14 9 -4 21 7 8 10 15 7 15 -3 0 -9 -5 -12 -10z m-25 -50 c0 -5 -2 -10 -4 -10
-3 0 -8 5 -11 10 -3 6 -1 10 4 10 6 0 11 -4 11 -10z"/>
<path d="M3097 4534 c32 -44 69 -182 82 -302 13 -123 14 -521 1 -757 -25 -452
-24 -825 1 -809 6 3 8 -6 4 -23 -4 -21 -3 -23 3 -8 9 19 21 20 341 25 182 3
331 1 331 -3 0 -5 8 -1 18 9 16 17 17 14 22 -67 4 -60 9 5 18 226 6 171 17
419 23 553 11 263 1 484 -26 561 -32 93 -116 182 -277 294 -94 65 -319 200
-476 285 l-86 46 21 -30z"/>
<path d="M3206 2583 c-6 -14 -5 -15 5 -6 7 7 10 15 7 18 -3 3 -9 -2 -12 -12z"/>
<path d="M3255 2480 c3 -5 8 -10 11 -10 2 0 4 5 4 10 0 6 -5 10 -11 10 -5 0
-7 -4 -4 -10z"/>
</g>
</svg>
